<?xml version="1.0" encoding="utf-8"?>
<!-- Generator: Adobe Illustrator 28.0.0, SVG Export Plug-In . SVG Version: 6.00 Build 0)  -->
<svg version="1.2" baseProfile="tiny" xmlns="http://www.w3.org/2000/svg" xmlns:xlink="http://www.w3.org/1999/xlink" x="0px"
	 y="0px" viewBox="0 0 70 70" overflow="visible" xml:space="preserve">
<g id="Layer_2">
	<polyline fill="#B8BCBB" points="36.58,64.11 12.52,57.44 10.92,56 10.4,53.92 10.29,42.29 3.87,40.54 3.87,39.79 10.17,31.36 
		20.22,28.66 51.41,28.24 59.98,30.8 65.84,38.3 65.33,38.98 60.69,40.75 60.69,53.92 60.09,55.71 57.74,57.65 	"/>
</g>
<g id="Layer_1">
	<path fill="#FAF6F0" d="M47.75,19.7c0.01,0.11-0.2,1.4-0.07,1.43c0.06,0.26,0.28,0.41,0.47,0.55c0.31,0.24,0.49,0.56,0.65,0.9
		c0.68,1.41,1.27,2.86,1.45,4.43c0.14,1.13-0.11,2.2-0.47,3.26c-0.48,1.41-1.48,2.43-2.6,3.34c-0.39,0.32-0.92,0.42-1.41,0.56
		c-0.95,0.26-1.93,0.41-2.85,0.74c-1.63,0.59-3.36,0.75-5.01,1.19c-0.48,0.13-1,0.07-1.44,0.32c-0.08-0.01-0.15-0.02-0.23-0.03
		c-0.09-0.22-0.25-0.29-0.49-0.31c-1.76-0.2-3.51-0.49-5.24-0.92c-0.76-0.19-1.52-0.41-2.28-0.62c-0.01-0.06-0.03-0.12-0.04-0.18
		c-0.04,0.03-0.08,0.07-0.12,0.1c-0.03,0.02-0.06,0.04-0.09,0.06c-1.14-0.25-2.28-0.5-3.41-0.76c-0.93-0.21-1.4-1.02-1.92-1.68
		c-1.49-1.86-1.48-4.04-1.1-6.25c0.29-1.66,1.11-3.08,2.04-4.44c0.11-0.16,0.19-0.33,0.17-0.53c-0.14-1.71,0.21-3.38,0.33-5.07
		c0.04-0.64,0.2-1.26,0.34-1.88c0.29-1.3,1.25-1.4,2.16-0.86c1.09,0.65,2.24,1.26,3.05,2.3c0.29,0.38,0.72,0.61,1.09,0.9
		c0.4,0.32,0.81,0.06,1.2,0.01c2.7-0.34,5.39-0.37,8.07,0.13c0.59,0.11,1.02-0.18,1.36-0.51c1.04-1.01,2.23-1.79,3.42-2.58
		c0.39-0.26,0.8-0.41,1.25-0.5c0.08,0.04,0.15,0.05,0.23,0c0.77,0.13,0.95,0.31,1.05,1.09c0.03,0.2,0.05,0.41,0.08,0.62
		c-0.05,0.08-0.06,0.16,0.02,0.23l0.27,3.08L47.75,19.7z"/>
</g>
<g id="Layer_4">
	<path fill="#15232E" d="M66.76,37.86c-1.96-2.48-4.04-5.02-6.07-7.41c-0.85-0.46-1.75-0.88-2.72-1.07
		c-0.23,0.26-0.39,0.24-0.46-0.12c-1.84-0.53-3.71-0.99-5.49-1.72c-0.26-0.1-0.35-0.19-0.38-0.45c-0.21-2.01-0.75-4.26-2.02-5.85
		c-1.07-1.48-0.23-3.9-0.65-5.7c-0.08-1.87-0.33-4.19-2.65-4.12c-2.02-0.11-3.75,1.42-5.17,2.7c-1.19,1.21-2.58,0.45-4.02,0.35
		c-1.76-0.12-3.51,0.01-5.23,0.39c-0.3,0.07-0.48,0.01-0.71-0.18c-1.98-1.99-6.51-5.52-8.1-1.38c-0.36,2.33-1.04,4.66-0.86,7.03
		c-1.03,2.28-2.41,4.45-2.36,7.1c0.05,0.99-3.69,1.34-4.63,1.8c-2.01,0.85-4.78,0.5-6.19,2.3c-1.81,2.33-3.41,4.83-5.3,7.1
		c-0.72,0.79-1.33,2.68,0.14,2.98c2.14,0.47,4.57,1.04,6.5,1.58c-0.14,0.22-0.25-0.08-0.46,0c0.01,0.24-0.13,0.43-0.06,0.69
		c0.36-0.04,0.35,0.39,0,0.34c0.28,3.48-1.01,10.23,1.17,12.67c3.03,2.64,7.48,2.48,11.13,3.87c4.66,1.25,9.35,2.63,13.97,3.88
		c4.48-1.31,8.98-2.88,13.44-4.1c4.07-1.95,12.07-1.35,11.6-7.63c0.05-3.37,0-6.75-0.01-10.12c0-1.56,0.01-1.54,1.51-1.93
		c1.15-0.3,2.32-0.55,3.41-1.02C67.01,39.45,67.22,38.72,66.76,37.86z M50.4,32.57c2.52-4.7-1.31-3.63,6.96-1.76
		c0.21-0.03,0.29,0.14,0.04,0.22c-0.99,0.01-1.86,0.46-2.77,0.76c-1.43,0.43-2.95,0.52-4.29,1.26
		C50.23,32.81,50.33,32.67,50.4,32.57z M21.55,25.84c0.2-1.91,1.56-3.3,2.21-4.97c-0.14-1.71,0.21-3.38,0.33-5.07
		c0.07-1.46,0.64-3.99,2.49-2.74c1.63,0.74,2.75,2.12,4.14,3.2c3.01,0.05,6.19-0.63,9.27,0.14c0.59,0.11,1.02-0.18,1.36-0.51
		c1.43-1.16,3.14-2.88,4.9-3.09c1.3,0.06,1.04,1.47,1.21,2.32c0.24,1.94,0.35,4.01,0.22,6c1.47,1.59,2.25,3.73,2.57,5.89
		c0.26,2.58-1.02,5.11-3.07,6.61c-1.26,0.78-2.9,0.75-4.26,1.3c-2.1,0.74-4.34,0.89-6.45,1.5c-0.14,0.44-0.32-0.46-0.72-0.34
		c-2.64-0.23-5.2-0.94-7.76-1.56c-1.14-0.25-2.28-0.5-3.41-0.76C21.63,32.41,20.91,28.73,21.55,25.84z M50.19,33.1
		c-0.03,0.01-0.06,0.03-0.1,0.04c-0.05-0.09-0.04-0.12,0.06-0.14C50.17,33.03,50.18,33.06,50.19,33.1z M21.51,33.1
		c-0.08,0.05-0.12,0.04-0.13-0.06C21.46,32.99,21.49,33,21.51,33.1z M13.55,31.34c1.94-0.48,4-1.15,6-1.64
		c0.16-0.04,0.37-0.12,0.42,0.13c0.22,1.09,0.73,2.05,1.32,3.1C18.68,32.34,15.9,32.04,13.55,31.34z M4.99,40.38
		c-0.14-0.03-0.28-0.1-0.47-0.17c1.31-1.93,2.81-3.53,4-5.47c0.41-0.84,1.2-1.36,1.65-2.16c0.12-0.21,0.33-0.14,0.51-0.16
		c8.01,1.15,15.83,3.63,23.81,5.06c0.51,0.09,0.56,0.22,0.28,0.67c-1.47,2.35-3,4.66-4.33,7.09c-0.21,0.39-0.44,0.66-1.01,0.52
		C21.26,44.03,13.16,42.06,4.99,40.38z M36.12,56.51c-0.01,2.18-0.04,4.36,0,6.54c0.01,0.46-0.09,0.47-0.45,0.35
		c-5.11-1.47-10.25-2.8-15.36-4.26c-3.25-1.12-9.37-1.05-9.36-5.6c-0.24-3.3,0.44-7.49-0.25-10.35c6.37,1.44,12.8,2.66,19.14,4.23
		c0.48,0.13,0.83-0.02,1.12-0.42c1.83-2.58,3.32-5.58,5.17-8.04V56.51l0.22-0.11C36.29,56.45,36.22,56.49,36.12,56.51z M10.47,43.2
		c0.05,0,0.09,0,0.14,0C10.57,43.2,10.52,43.2,10.47,43.2z M56.27,57.42c-6.12,1.82-12.25,3.59-18.3,5.62
		c-0.83,0.35-0.85,0.32-0.84-0.56c0.06-4.53,0.08-19.29,0.06-24.07c0.49,1.14,1.32,2.03,2.05,3.01c1.07,1.48,2.18,2.93,3.15,4.49
		c0.27,0.43,0.64,0.39,0.99,0.33c3.69-0.72,7.27-1.93,10.87-3.01c8.23-2,5.3-3.55,5.82,7.29c0,1.28,0.1,2.57-0.11,3.85
		c0.29,0.31,0.28,0.54-0.15,0.69C59.17,56.58,57.68,57.06,56.27,57.42z M65.31,38.45c-6.91,2.14-13.94,4.01-20.89,6.06
		c-1.02,0.29-1.01,0.29-1.6-0.61c-0.81-1.23-1.63-2.45-2.54-3.61c-0.19-0.42-2.33-2.75-1.55-2.79c6.92-1.56,13.69-3.71,20.56-5.41
		c0.67-0.16,0.98-0.03,1.45,0.71C62.08,34.81,63.95,36.54,65.31,38.45z"/>
</g>
<g id="Layer_3">
	<path fill="#FBE5D6" d="M43.92,31.24c-1.26,0.08-2-0.65-2.54-1.6c-0.4-0.72,0-1.6,0.69-2.12c1-0.74,2.04-0.67,3.1-0.32
		c0.8,0.26,1.31,0.88,1.51,1.7c0.17,0.7-0.79,2.1-1.52,2.21C44.74,31.17,44.32,31.33,43.92,31.24z"/>
	<path fill="#FBE5D6" d="M30.43,29.24c0,0.96-0.15,1.21-1.06,1.56c-0.54,0.2-1.06,0.43-1.66,0.47c-0.82,0.04-1.41-0.31-1.93-0.87
		c-0.66-0.7-0.41-2.38,0.38-2.94c1.17-0.83,2.3-0.73,3.44,0.01C30.32,27.95,30.43,28.21,30.43,29.24z"/>
	<g>
		<path d="M33.33,27.7h-1.22l-0.76-1.22L30.6,27.7h-1.19l1.29-2l-1.22-1.9h1.17l0.7,1.21l0.68-1.21h1.2L32,25.79L33.33,27.7z"/>
	</g>
	<g>
		<path d="M42.42,27.7H41.2l-0.76-1.22l-0.75,1.22H38.5l1.29-2l-1.22-1.9h1.17l0.7,1.21l0.68-1.21h1.2l-1.23,1.99L42.42,27.7z"/>
	</g>
	<ellipse cx="35.76" cy="27.68" rx="0.72" ry="1.01"/>
</g>
</svg>
